<svg width="800" height="800" viewBox="0 0 24 24" fill="none" xmlns="http://www.w3.org/2000/svg">
  <path d="M12 0C5.373 0 0 5.373 0 12C0 18.627 5.373 24 12 24C18.627 24 24 18.627 24 12C24 5.373 18.627 0 12 0Z" fill="#000"/>
  <path d="M2 12C2 6.477 6.477 2 12 2C17.523 2 22 6.477 22 12C22 17.523 17.523 22 12 22C9.798 22 7.82 20.933 6.614 19.271L2 24V12Z" fill="#FFD700"/>
  <path d="M11.5 11C10.6716 11 10 10.3284 10 9.5C10 8.67157 10.6716 8 11.5 8C12.3284 8 13 8.67157 13 9.5C13 10.3284 12.3284 11 11.5 11Z" fill="#000"/>
  <path d="M15.5 11C14.6716 11 14 10.3284 14 9.5C14 8.67157 14.6716 8 15.5 8C16.3284 8 17 8.67157 17 9.5C17 10.3284 16.3284 11 15.5 11Z" fill="#000"/>
  <path d="M12 13C10.8954 13 10 13.8954 10 15H14C14 13.8954 13.1046 13 12 13Z" fill="#000"/>
</svg>
